<svg xmlns="http://www.w3.org/2000/svg" xmlns:xlink="http://www.w3.org/1999/xlink" xmlns:sketch="http://www.bohemiancoding.com/sketch/ns" viewBox="0 0 50 30" version="1.1" x="0px" y="0px"><title>waves</title><desc>Created with Sketch.</desc><g stroke="none" stroke-width="1" fill="none" fill-rule="evenodd" sketch:type="MSPage"><path d="M 22.2437 16.29 C 23.9341 17.9807 26.1819 18.9118 28.5734 18.9118 C 30.9641 18.9118 33.2119 17.9807 34.9026 16.29 C 35.5305 15.6625 35.5305 14.645 34.9026 14.0171 C 34.2755 13.3896 33.2573 13.3896 32.6301 14.0171 C 31.5466 15.1007 30.1059 15.6975 28.5734 15.6975 C 27.0409 15.6975 25.5998 15.1007 24.5162 14.0171 C 21.0266 10.5271 15.3469 10.5271 11.8573 14.0171 C 10.7737 15.1007 9.333 15.6975 7.8005 15.6975 C 6.268 15.6975 4.8269 15.1007 3.7434 14.0171 C 3.1155 13.3896 2.098 13.3896 1.4709 14.0171 C 0.843 14.645 0.843 15.6625 1.4709 16.29 C 3.1616 17.9807 5.4094 18.9118 7.8005 18.9118 C 10.1916 18.9118 12.4394 17.9807 14.1298 16.29 C 16.3673 14.0528 20.0062 14.0528 22.2437 16.29 M 38.9598 22.2735 C 36.5684 22.2735 34.3205 23.2046 32.6301 24.8953 C 30.3923 27.1325 26.7534 27.1317 24.5162 24.8957 C 21.0266 21.4053 15.3469 21.4053 11.8573 24.8957 C 11.2294 25.5232 11.2294 26.5407 11.8573 27.1682 C 12.4844 27.796 13.5026 27.796 14.1298 27.1682 C 16.3673 24.931 20.0062 24.9314 22.2437 27.1682 C 23.9887 28.9135 26.2809 29.7857 28.5734 29.7857 C 30.8655 29.7857 33.158 28.9135 34.9026 27.1682 C 35.9862 26.0846 37.4273 25.4878 38.9598 25.4878 C 40.4919 25.4878 41.9326 26.0846 43.0162 27.1682 C 43.6434 27.796 44.6619 27.796 45.2887 27.1682 C 45.9166 26.5407 45.9166 25.5232 45.2887 24.8957 C 43.5984 23.2046 41.3505 22.2735 38.9598 22.2735 M 14.1298 5.4117 C 16.3673 3.1746 20.0062 3.1743 22.2437 5.4117 C 23.9341 7.1021 26.1819 8.0332 28.5734 8.0332 C 30.9641 8.0332 33.2119 7.1021 34.9026 5.4117 C 35.9862 4.3278 37.4273 3.731 38.9598 3.731 C 40.4919 3.731 41.9326 4.3278 43.0162 5.4117 C 43.6434 6.0389 44.6619 6.0389 45.2887 5.4117 C 45.9166 4.7839 45.9166 3.7664 45.2887 3.1385 C 43.5984 1.4478 41.3505 0.5168 38.9598 0.5168 C 36.5684 0.5168 34.3205 1.4478 32.6301 3.1385 C 31.5466 4.2221 30.1059 4.8189 28.5734 4.8189 C 27.0409 4.8189 25.5998 4.2221 24.5162 3.1385 C 21.0266 -0.3511 15.3469 -0.3511 11.8573 3.1385 C 11.2294 3.7664 11.2294 4.7839 11.8573 5.4117 C 12.4844 6.0389 13.5026 6.0389 14.1298 5.4117" fill="#000000" sketch:type="MSShapeGroup"/></g></svg>
